<svg width="576" height="80" viewBox="0 0 576 80" fill="none" xmlns="http://www.w3.org/2000/svg">
<g clip-path="url(#clip0_44_38)">
<path d="M34.328 21.7916L45.044 52.1376H23.611L34.328 21.7916ZM29.536 1.39461L0 77.5666H14.598L19.381 63.8966H49.265L54.163 77.5666H68.646L39.458 1.39561L29.536 1.39461ZM96.207 38.4096C102.141 38.4096 106.352 42.1406 109.373 46.6276L119.315 40.9636C114.881 32.8606 106.033 27.4166 96.207 27.4166C81.841 27.4166 69.972 38.9366 69.972 53.1326C69.972 67.3306 81.841 78.8496 96.207 78.8496C106.033 78.8496 114.881 73.4056 119.315 65.3026L109.373 59.6486C106.342 64.1256 102.141 67.8566 96.207 67.8566C88.114 67.8566 81.957 61.0266 81.957 53.1326C81.957 45.2406 88.114 38.4096 96.207 38.4096ZM194.301 48.2256C196.024 41.8256 201.32 37.9886 207.689 37.9886C214.059 37.9886 219.132 41.9306 220.865 48.2256H194.301ZM207.68 27.4166C193.314 27.4166 181.871 38.9366 181.871 53.1326C181.871 67.3306 193.74 78.8496 208.106 78.8496C216.857 78.8496 224.514 74.7926 229.268 68.2876L220.303 61.6766C216.954 65.6186 213.391 68.0766 208.096 68.0766C201.194 68.0766 195.792 63.4946 194.175 57.2946H233.043C233.256 56.3386 233.469 54.5296 233.469 53.1326C233.488 38.9356 222.046 27.4166 207.68 27.4166ZM149.915 27.4166C135.704 27.4166 125.52 38.9366 125.52 53.1326V77.5676H137.378V53.1326C137.378 45.2406 141.909 38.4096 149.924 38.4096C157.93 38.4096 162.461 45.2396 162.461 53.1326V77.5676H174.32V53.1326C174.31 38.9356 164.116 27.4166 149.915 27.4166ZM569.63 51.2096C567.471 49.8226 564.664 48.8666 561.537 48.3206C557.975 47.6806 555.7 47.2586 554.306 46.2926C552.902 45.3356 552.466 44.0536 552.466 42.5616C552.466 39.5766 554.945 37.1176 558.614 37.1176C562.283 37.1176 564.441 39.1466 565.419 43.3076L576 41.3946C574.606 32.7456 568.546 27.4166 558.73 27.4166C548.691 27.4166 541.459 34.4586 541.459 42.3506C541.459 48.0056 543.512 51.7366 546.755 54.0906C549.127 55.7926 552.157 56.8646 556.039 57.4956C558.304 57.8206 560.676 58.2516 562.186 58.9886C564.345 60.0596 564.993 61.7626 564.993 63.5806C564.993 66.6806 562.292 69.1296 558.623 69.1296C554.954 69.1296 552.253 67.1006 552.031 62.1926H541.237V62.8336C541.237 74.1516 550.298 78.8396 558.614 78.8396C567.036 78.8396 575.99 73.1856 575.99 63.5796C576 58.0406 573.735 53.8796 569.63 51.2096ZM473.24 7.11661H461.265V19.7066H473.24V7.11661ZM473.249 28.6896H461.265V77.5576H473.249V28.6896ZM326.374 9.27861H314.39V28.6986H309.21V39.6916H314.39V62.6336C314.39 72.7746 321.844 78.8496 332.096 78.8496C333.393 78.8496 334.796 78.7446 335.765 78.5336V67.8576H334.796C329.501 67.8576 326.374 65.5136 326.374 59.8596V39.6916H335.765V28.6996H326.374V9.27861ZM294.941 37.9796C291.166 35.5296 286.955 34.6696 283.179 33.9226C279.723 33.2726 276.161 32.8516 272.918 30.7176C270.546 29.1196 269.036 26.5566 269.036 23.1406C269.036 17.3806 274.108 12.5786 280.159 12.5786C290.74 12.5786 291.708 23.6766 291.708 23.6766L304.235 21.5426C303.586 15.2396 298.726 0.849609 280.159 0.849609C266.77 0.849609 256.189 10.8756 256.189 23.1496C256.189 31.7996 260.507 38.8396 267.951 42.2466C272.811 44.4846 276.374 44.9156 279.723 45.6616C283.392 46.5226 285.87 46.9436 287.816 48.5416C290.081 50.3586 291.272 53.2286 291.272 56.0126C291.272 61.9826 286.306 66.5746 280.149 66.5746C277.342 66.5746 269.239 65.2926 269.239 54.5106H256.286C256.286 74.6786 273.992 78.3046 280.149 78.3046C293.431 78.3046 304.331 68.3836 304.331 56.0036C304.331 48.2256 300.982 41.9306 294.941 37.9796ZM508.293 67.8566C500.2 67.8566 494.034 61.0266 494.034 53.1326C494.034 45.2406 500.191 38.4096 508.293 38.4096C516.386 38.4096 522.543 45.2396 522.543 53.1326C522.553 61.0256 516.386 67.8566 508.293 67.8566ZM508.293 27.4166C493.927 27.4166 482.059 38.9366 482.059 53.1326C482.059 67.3306 493.937 78.8496 508.293 78.8496C522.65 78.8496 534.528 67.3306 534.528 53.1326C534.528 38.9356 522.659 27.4166 508.293 27.4166ZM382.145 53.1346C382.145 61.0276 377.082 67.8576 369.376 67.8576H369.134C361.438 67.8576 356.365 61.0276 356.365 53.1346V28.6996H344.971V53.1336C344.971 67.3216 355.475 78.8496 369.134 78.8496H369.376C383.036 78.8496 393.539 67.3306 393.539 53.1336V28.6996H382.145V53.1346ZM425.737 67.8966C417.837 67.8966 411.429 61.2866 411.429 53.1346C411.429 44.9846 417.837 38.3726 425.737 38.3726C433.636 38.3726 440.045 44.9836 440.045 53.1346C440.045 61.2856 433.636 67.8966 425.737 67.8966ZM439.987 32.4126C434.227 27.3036 425.737 27.4186 425.737 27.4186C411.38 27.4186 399.415 38.9376 399.415 53.1346C399.415 67.3226 411.38 78.8506 425.737 78.8506C440.548 78.8506 451.971 67.8966 451.971 53.1446V1.34861H439.987V32.4126Z" fill="black"/>
</g>
<defs>
<clipPath id="clip0_44_38">
<rect width="576" height="79" fill="white" transform="translate(0 0.849609)"/>
</clipPath>
</defs>
</svg>
