<svg width="572" height="125" viewBox="0 0 572 125" fill="none" xmlns="http://www.w3.org/2000/svg">
<path d="M2.16406 2.39966H22.0765V102.096L2.16406 122.035V2.39966ZM41.9889 102.096C53.1456 102.096 62.1001 93.1216 62.1001 82.1566C62.1001 71.1916 53.138 62.2174 41.9889 62.2174V42.2781C47.5634 42.2781 51.9451 37.8906 51.9451 32.3162C51.9451 26.7341 47.5634 22.3466 41.9889 22.3466V2.39966C58.5137 2.39966 71.8651 15.7537 71.8651 32.3085C71.8651 39.0851 69.6705 45.2644 65.8929 50.2492C75.4515 57.4316 81.8213 69.193 81.8213 82.1489C81.8213 104.087 64.1036 122.027 41.9965 122.027V102.096H41.9889Z" fill="black"/>
<path d="M91.8081 42.2781V2.39966H111.721V42.2705H131.633L111.721 62.2174L91.8081 42.2781ZM131.625 62.2174L151.538 42.2781V2.39966H171.45V42.2705L151.538 62.2097V102.088L131.625 122.027V62.2174Z" fill="black"/>
<path d="M191.408 2.39966H211.321V102.096L191.408 122.035V2.39966ZM231.226 62.2174C242.184 62.2174 251.138 53.2432 251.138 42.2781C251.138 31.3131 242.176 22.3389 231.226 22.3389V2.39966C253.134 2.39966 271.05 20.3404 271.05 42.2705C271.05 64.2082 253.134 82.1489 231.226 82.1489V62.2174ZM251.146 82.1566L271.058 102.096V122.035H251.146V82.1566Z" fill="black"/>
<path d="M291.009 2.39966H310.921V102.096L291.009 122.035V2.39966ZM330.826 2.39966H370.651V22.3389H330.826V2.39966ZM330.826 42.2781H370.651V62.2174H330.826V42.2781ZM330.826 102.096H370.651V122.035H330.826V102.096Z" fill="black"/>
<path d="M390.609 2.39966H410.521V102.096L390.609 122.035V2.39966ZM430.426 102.096C441.384 102.096 450.339 93.1216 450.339 82.1566V42.2781C450.339 31.3131 441.376 22.3389 430.426 22.3389V2.39966C452.533 2.39966 470.251 20.3404 470.251 42.2705V82.1489C470.251 104.087 452.533 122.027 430.426 122.027V102.096Z" fill="black"/>
<path d="M490.202 42.278C490.202 20.3479 508.118 2.40723 530.019 2.40723C552.126 2.40723 569.844 20.3479 569.844 42.278L549.931 62.2173V42.278C549.931 31.313 541.168 22.3388 530.019 22.3388C519.068 22.3388 510.106 31.313 510.106 42.278L490.194 62.2173V42.278H490.202ZM490.202 82.1565L510.114 62.2173V82.1565C510.114 93.1216 519.076 102.096 530.026 102.096C541.183 102.096 549.939 93.1216 549.939 82.1565L569.851 62.2173V82.1565C569.851 104.094 552.133 122.035 530.026 122.035C508.126 122.035 490.202 104.094 490.202 82.1565Z" fill="black"/>
</svg>
