<svg width="450" height="94" viewBox="0 0 450 94" fill="none" xmlns="http://www.w3.org/2000/svg">
<g clip-path="url(#clip0_42_147)">
<path fill-rule="evenodd" clip-rule="evenodd" d="M407.95 78.7037V52.6792H436.683V39.3841H407.95V18.7548H443.576V5.45525H393.241V91.9942H447.247V78.7037H407.95ZM367.512 95.3203L367.625 5.34306H352.915L353.146 62.3072L288.568 2.93719L288.453 91.9897H303.162L302.929 37.2071L367.512 95.3203ZM262.7 91.9897L262.709 5.34306H248.004L247.991 91.9897H262.7ZM178.483 91.9942H229.618V78.7037H193.193V5.34306H178.483V91.9942ZM102.411 91.9942H156.421V78.7037H117.121V52.6792H145.847V39.3841H117.121V18.7548H152.745V5.45525H102.411V91.9942ZM16.4481 48.2132C16.4481 31.7043 27.9404 16.6901 47.4736 16.6901C56.4373 16.6901 65.2838 19.8994 71.3762 25.8602L79.1879 15.6577C76.3169 12.2195 65.2838 3.39502 47.4736 3.39502C19.8949 3.39502 0.820557 24.2533 0.820557 48.5542C0.820557 73.4297 20.9299 94.0591 49.0801 94.0591C61.4903 94.0591 71.8352 90.0508 79.7639 82.4831L72.9827 72.9673C69.536 76.4102 60.6895 80.8807 49.7731 80.8807C30.1227 80.8807 16.4481 66.3243 16.4481 48.2132Z" fill="black"/>
</g>
<defs>
<clipPath id="clip0_42_147">
<rect width="450" height="93" fill="white" transform="translate(0 0.179565)"/>
</clipPath>
</defs>
</svg>
