<svg width="472" height="62" viewBox="0 0 472 62" fill="none" xmlns="http://www.w3.org/2000/svg">
<path fill-rule="evenodd" clip-rule="evenodd" d="M200.598 43.4452C204.539 50.3157 208.135 55.3225 213.894 56.0483C214.161 56.1057 214.145 56.3698 214.145 56.3698V57.4237C214.132 57.7226 213.862 57.7349 213.862 57.7349C213.862 57.7349 204.257 57.5585 199.904 57.5585C197.698 57.5585 195.471 57.6003 193.182 57.6432H193.182H193.182H193.181H193.181C190.878 57.6864 188.513 57.7307 186.046 57.7349C185.92 57.7412 185.759 57.6425 185.751 57.4117V56.3351C185.751 56.3351 185.749 56.0963 185.994 56.0403C190.675 55.3332 192.524 53.9444 192.524 51.5471C192.524 49.1417 190.978 46.5149 188.903 42.9864C188.723 42.6811 188.54 42.369 188.353 42.0497L184.833 36.0757C184.736 35.9222 184.603 35.8702 184.456 35.8635H157.75C157.542 35.8649 157.472 35.9716 157.401 36.0863L155.616 39.2615C153.272 43.4452 151.535 46.8431 151.535 49.718C151.535 52.6304 153.128 54.9557 157.726 56.0243C157.881 56.067 157.957 56.1897 157.961 56.3164C157.962 56.4111 157.962 56.6961 157.962 56.9867L157.961 57.4091C157.953 57.7079 157.675 57.7252 157.675 57.7252C157.675 57.7252 151.473 57.5585 147.278 57.5585C142.91 57.5585 140.654 57.6385 138.729 57.7212C138.557 57.7186 138.432 57.5892 138.42 57.4277V56.3084C138.42 56.2364 138.467 56.0936 138.624 56.0269C141.401 55.2665 145.531 51.1042 152.142 40.1326L166.558 16.694C170.016 11.0063 171.957 7.65632 173.37 5.21625L173.37 5.21581C174.087 3.9783 174.668 2.97483 175.243 2.01908C175.3 1.93103 175.337 1.883 175.492 1.88034C175.612 1.87824 175.816 1.87943 175.922 1.88004L175.982 1.88034C176.137 1.88034 176.191 1.89101 176.246 1.97372C176.262 1.98973 176.267 2.00174 176.267 2.00174C176.267 2.00174 180.676 9.28852 184.359 15.6468L200.598 43.4452ZM159.46 33.4235H182.794C183.073 33.4115 183.135 33.0993 183.033 32.9539L180.366 28.5434C177.037 22.902 174.732 19.1234 173.151 16.5307L173.151 16.5298L173.149 16.5276C172.453 15.3866 171.898 14.4755 171.456 13.7364C171.308 13.5363 171.067 13.5416 170.934 13.7524C170.643 14.2293 170.337 14.7292 169.999 15.2804L169.998 15.2814L169.997 15.2833C168.47 17.7775 166.299 21.3229 161.957 28.5434L159.207 32.9539C159.098 33.142 159.192 33.4115 159.46 33.4235ZM69.5264 7.72866C64.4461 5.80758 55.3066 2.83923 41.8566 2.83923C17.3684 2.83923 0.00012207 15.2116 0.00012207 30.9858C0.00012207 47.6259 14.9379 58.6054 41.7701 58.6054C55.3385 58.6054 63.897 55.3676 69.2073 53.1877C69.3216 53.1463 69.3828 53.0436 69.3841 52.9115L69.3004 39.7895C69.303 39.632 69.1953 39.524 69.0411 39.5066L68.0386 39.4493C67.8977 39.4439 67.7886 39.564 67.762 39.6614C64.5657 51.6922 54.3692 56.2521 41.7701 56.2521C24.4896 56.2521 12.5048 46.5826 12.5048 30.723C12.5048 14.7766 22.926 5.27795 41.8566 5.27795C55.389 5.27795 63.7879 11.0319 67.0534 20.3184C67.0973 20.4479 67.1903 20.5292 67.322 20.5279H68.3577C68.5 20.5266 68.6103 20.3945 68.6276 20.2651L69.7125 8.0315C69.7245 7.90743 69.6793 7.79937 69.5264 7.72866ZM140.569 40.4118L140.109 40.3078L139.718 40.2211L139.547 40.1824C139.444 40.1624 139.314 40.1784 139.22 40.3278C137.972 42.5811 136.675 44.6396 135.196 46.4619C133.677 48.3363 131.967 49.9626 129.926 51.2967C127.885 52.6307 125.513 53.674 122.67 54.3851C119.825 55.0935 116.509 55.4684 112.58 55.4684H110.41C107.566 55.4684 105.351 55.2509 103.629 54.7946C101.908 54.3384 100.678 53.6433 99.8043 52.6908C98.9308 51.7369 98.4122 50.5256 98.1117 49.0354C97.8126 47.5452 97.7315 45.7762 97.7315 43.7044V17.8257C97.7315 16.8452 97.7421 15.93 97.778 15.0762C97.8153 14.2197 97.8764 13.4246 97.9801 12.6855C98.0825 11.9437 98.2274 11.258 98.4269 10.6203C98.6263 9.98397 98.8816 9.39564 99.2073 8.85133C99.4892 8.39374 99.8203 7.98151 100.211 7.61063C100.603 7.23842 101.053 6.9129 101.574 6.62874C102.095 6.34592 102.685 6.10578 103.36 5.90967C103.969 5.73224 104.645 5.59082 105.395 5.4841C105.45 5.47609 105.642 5.38804 105.634 5.17592V4.11666C105.619 3.80315 105.334 3.80848 105.334 3.80848C105.334 3.80848 104.072 3.84851 103.353 3.86585C102.513 3.88719 101.587 3.90587 100.557 3.92188C99.5251 3.93656 98.3883 3.9499 97.1292 3.9579C95.8674 3.96724 94.4833 3.97124 92.9543 3.97124C92.0396 3.97124 91.0969 3.97124 90.1183 3.96857C89.1398 3.96591 88.1253 3.96057 87.0643 3.95123C86.0033 3.94056 84.8944 3.92588 83.7297 3.90187C82.5663 3.87919 81.3458 3.84851 80.0601 3.80848C80.0574 3.80848 79.7609 3.81515 79.7543 4.10865V4.56891V4.77836V5.17992C79.7544 5.17992 79.7545 5.18043 79.7545 5.18139L79.7548 5.18574C79.7567 5.22455 79.7675 5.44566 80.0268 5.48943C80.7634 5.59483 81.4295 5.73491 82.0292 5.90967C82.7019 6.10578 83.2923 6.34592 83.8148 6.62874C84.336 6.9129 84.7854 7.23842 85.1776 7.61063C85.5672 7.98151 85.8982 8.39374 86.1814 8.85133C86.5072 9.39564 86.7625 9.98397 86.9606 10.6203C87.1613 11.258 87.3049 11.9437 87.4086 12.6855C87.511 13.4246 87.5735 14.2197 87.6107 15.0762C87.6466 15.93 87.6573 16.8452 87.6573 17.8257V43.7044C87.6573 44.6849 87.6466 45.6014 87.6107 46.4539C87.5735 47.3104 87.511 48.1069 87.4086 48.8446C87.3049 49.5864 87.1613 50.2734 86.9606 50.9098C86.7625 51.5475 86.5072 52.1358 86.1814 52.6801C85.8982 53.1364 85.5672 53.5539 85.1776 53.9208C84.7854 54.2917 84.336 54.6185 83.8148 54.9027C83.2923 55.1855 82.7019 55.4243 82.0292 55.6191C81.4242 55.7965 80.0082 56.0433 80.0082 56.0433C80.0082 56.0433 79.7583 56.0687 79.7543 56.3515V57.4135C79.7569 57.6029 79.9058 57.7256 80.0574 57.7256C81.27 57.6856 82.4241 57.6549 83.5276 57.6322C84.7216 57.6096 85.8557 57.5922 86.9406 57.5802C88.0269 57.5695 89.0626 57.5642 90.0612 57.5615C91.061 57.5602 92.021 57.5602 92.9543 57.5602H122.047C123.739 57.5602 125.417 57.5695 126.98 57.5855C128.543 57.6042 129.992 57.6256 131.23 57.6469C132.467 57.6696 133.493 57.6909 134.208 57.707L134.244 57.7079C134.641 57.7181 134.937 57.7257 135.122 57.7283C135.31 57.7222 135.374 57.5831 135.397 57.5326C135.399 57.5275 135.401 57.5232 135.402 57.5202L139.5 44.7943L140.793 40.7854C140.812 40.7467 140.838 40.4799 140.569 40.4118ZM462.798 30.7235C457.844 28.3702 451.419 27.1508 444.56 25.9301L439.175 24.9722C427.629 23.0538 422.675 20.5284 422.675 14.4289C422.675 8.85245 429.017 5.105 441.435 5.105C454.759 5.105 460.936 11.2525 463.161 19.0676C463.212 19.2156 463.303 19.3064 463.492 19.3064H464.615C464.768 19.3077 464.886 19.1783 464.906 19.0342L466.001 6.84465C466.007 6.79529 465.991 6.75393 465.925 6.73392C459.003 4.56603 451.813 2.83972 441.519 2.83972C425.37 2.83972 412.952 7.89191 412.952 18.0883C412.952 28.4569 422.765 31.5066 436.052 33.9453L441.172 34.8178L442.002 34.9696C453.493 37.0691 462.189 38.6578 462.189 46.1455C462.189 53.2042 452.549 56.2499 440.217 56.2499C428.57 56.2499 417.777 51.6046 414.235 39.6619C414.192 39.5311 414.099 39.4391 413.936 39.4377H412.883C412.739 39.4444 412.603 39.5351 412.578 39.7299L411.399 53.1775C411.388 53.2429 411.417 53.3056 411.499 53.3376C415.239 54.9318 425.6 58.6059 440.217 58.6059C459.498 58.6059 471.57 53.463 471.57 42.3968C471.57 36.9083 468.093 33.2489 462.798 30.7235ZM394.951 3.97135C398.155 3.97135 401.933 3.88864 405.487 3.80458C405.676 3.80592 405.803 3.93533 405.809 4.13278V5.27342C405.801 5.41483 405.743 5.5389 405.567 5.59093C401.736 6.37671 399.873 7.67745 398.516 9.89603C396.69 12.9458 396.601 17.4763 396.601 23.9266V38.3028C396.601 43.3421 396.667 54.7115 396.684 57.818L396.685 57.8341L396.685 57.8466C396.687 58.3213 396.689 58.5955 396.689 58.6142C396.69 58.9211 396.37 59.0011 396.21 58.8837C395.915 58.6196 395.994 58.693 395.994 58.693C395.994 58.693 382.452 46.6662 377.414 42.3117L359.159 26.4521C350.235 18.8251 342.803 12.0839 342.739 12.0252C342.604 11.9012 342.337 11.9719 342.337 12.212C342.372 14.1238 342.502 21.4732 342.502 30.8092V37.4329C342.502 43.8806 342.586 48.4098 344.41 51.4595C345.775 53.6795 348.304 55.1469 352.165 55.9421C352.314 55.9768 352.397 56.0915 352.401 56.2556V57.4162C352.397 57.6257 352.219 57.7257 352.119 57.7284C347.872 57.643 343.638 57.559 340.072 57.559C337.339 57.559 334.901 57.6192 332.072 57.6891L331.548 57.702L331.039 57.7145L330.574 57.7257C330.387 57.7351 330.259 57.583 330.258 57.4229V56.2302C330.257 56.1235 330.339 55.9794 330.497 55.9421C334.35 55.1469 336.71 53.6795 338.075 51.4595C339.897 48.4098 339.982 43.8806 339.982 37.4329V10.0521C339.982 10.0521 339.989 9.90671 339.879 9.79198C337.034 6.90901 333.946 6.17927 331.011 5.58827C331.011 5.58827 330.799 5.54824 330.78 5.30277V4.10609C330.782 3.934 330.921 3.80993 331.068 3.80726C336.201 3.97135 337.264 3.97135 340.506 3.97135C342.723 3.97135 346.455 3.97135 349.056 3.88864C349.111 3.88997 349.203 3.90998 349.275 3.98336C350.301 5.14935 355.761 10.0214 363.588 16.6932L383.142 33.7709C389.834 39.4354 392.829 42.2917 393.757 43.2002C393.929 43.3336 394.165 43.2589 394.163 42.9961V42.9936C394.144 41.4795 394.087 36.841 394.087 30.1995V23.9266C394.087 17.4763 393.997 12.9458 392.172 9.89603C390.811 7.67478 388.527 6.12323 383.851 5.57226C383.645 5.53624 383.579 5.38015 383.577 5.24941V4.15946C383.577 3.90732 383.762 3.80326 383.922 3.80458C384.597 3.81814 385.249 3.83167 385.882 3.84483C389.174 3.91318 391.976 3.97135 394.951 3.97135ZM287.313 56.1108C281.584 54.6687 279.696 50.6998 277.638 45.885L277.118 44.5763C273.565 35.7433 270.609 31.585 260.365 31.046C260.022 31.0287 260.042 30.5937 260.325 30.5604C270.628 29.9654 279.373 25.6896 279.373 16.4324C279.373 5.27809 266.437 3.88531 251.934 3.88531C250.556 3.88531 249.155 3.90633 247.744 3.92751C246.311 3.94901 244.866 3.97069 243.424 3.97069H231.178C227.526 3.97069 221.547 3.97069 217.059 3.81038C216.895 3.80393 216.762 3.95335 216.762 4.10943V5.17937C216.767 5.35147 216.857 5.45419 217.015 5.48755C220.246 5.94647 222.088 7.06844 223.189 8.85211C224.492 11.0293 224.666 13.9056 224.666 17.8265V43.7038C224.666 47.626 224.492 50.5023 223.189 52.6809C222.088 54.4632 220.25 55.5839 217.022 56.0415C216.895 56.0668 216.768 56.1709 216.762 56.3336V57.4022C216.762 57.6424 216.945 57.7277 217.067 57.7251C222.219 57.5597 226.303 57.5597 229.963 57.5597C233.875 57.5597 242.345 57.7251 242.345 57.7251C242.345 57.7251 242.63 57.7144 242.642 57.4102V56.3496C242.642 56.2149 242.555 56.0775 242.4 56.0441C239.162 55.5865 237.318 54.4659 236.217 52.6809C234.912 50.5023 234.739 47.626 234.739 43.7038V32.0412C234.733 31.7784 234.861 31.685 235.049 31.681C235.874 31.6772 237.415 31.6616 239.098 31.6446L239.099 31.6446H239.1C241.507 31.6202 244.205 31.593 245.508 31.593C258.621 31.593 263.31 37.1708 266.348 45.1006C268.607 50.8519 271.474 57.6464 273.471 57.6464H277.465C281.609 57.6464 283.776 57.6464 287.254 57.7277C287.419 57.7197 287.53 57.5877 287.536 57.4169V56.3977C287.53 56.2629 287.446 56.1442 287.313 56.1108ZM235.071 29.241C234.841 29.2343 234.744 29.1769 234.739 29.0075V6.54681C234.74 6.32669 234.854 6.2373 235.053 6.22796C238.148 6.14525 247.842 6.06254 249.937 6.06254C258.969 6.06254 267.999 7.02175 267.999 16.4324C267.999 28.8928 256.972 29.241 247.158 29.241H235.071ZM320.086 56.3678V57.4137C320.085 57.5485 319.981 57.7259 319.796 57.7232C315.072 57.5591 311.324 57.5591 307.411 57.5591C303.674 57.5591 299.507 57.5591 294.207 57.7339V56.0783C297.596 55.6434 299.507 54.5094 300.636 52.6817C301.94 50.5005 302.11 47.6255 302.11 43.7046V17.8274C302.11 13.9051 301.94 11.0302 300.636 8.85162C299.536 7.06927 297.693 5.94864 294.469 5.48705C294.318 5.4577 294.218 5.34697 294.207 5.1762V4.11694C294.214 3.96619 294.304 3.80476 294.52 3.80829C299.672 3.97152 303.75 3.97152 307.411 3.97152C311.323 3.97152 315.072 3.97152 319.79 3.80829C319.948 3.79943 320.08 3.92883 320.086 4.10627V5.16687C320.086 5.34964 319.985 5.4577 319.871 5.48171C316.619 5.94064 314.765 7.06127 313.663 8.85162C312.36 11.0302 312.188 13.9051 312.188 17.8274V43.7046C312.188 47.6255 312.36 50.5005 313.663 52.6817C314.76 54.4614 316.603 55.5834 319.824 56.0423C319.941 56.0703 320.084 56.1357 320.086 56.3678Z" fill="black"/>
</svg>
