<svg width="478" height="104" viewBox="0 0 478 104" fill="none" xmlns="http://www.w3.org/2000/svg">
<g clip-path="url(#clip0_44_15)">
<path d="M376.32 103.85H397.37V62.6295H375.77V79.5295L357.45 62.6295H331.54V103.84H345.89V74.4195L376.32 103.84V103.85Z" fill="black"/>
<path d="M57.91 103.85H79.17V62.6295H48.28L39.79 81.0395L30.94 62.6295H0V103.84H14.11V73.1895L28.79 103.84H43.77L57.91 73.1595V103.84V103.85Z" fill="black"/>
<path d="M437.62 103.85H459.02V72.2095H477.4V62.6395H419.38V72.2495H437.61V103.85H437.62Z" fill="black"/>
<path d="M178.59 62.6295H208.42C227.26 62.6295 235.11 67.6995 235.11 76.5095C235.11 82.3795 230.03 86.4695 222.36 87.0495L237.69 103.81H215.59L199.83 86.5995V103.81H178.57V62.6295H178.59ZM199.85 79.7995H209.58C214.11 79.7995 216.6 78.4395 216.6 76.0595C216.6 73.6795 214.2 72.2095 209.58 72.2095H199.85V79.7995Z" fill="black"/>
<path d="M138.67 62.6295H120.01L100.66 103.84H114.35L116.87 98.4695H134.01L136.59 103.84H158.5L138.67 62.6295ZM120.08 91.6495L125.34 80.4395L130.73 91.6495H120.08Z" fill="black"/>
<path d="M291.65 62.6295H272.99L253.64 103.84H267.33L269.85 98.4695H286.99L289.57 103.84H311.48L291.65 62.6295ZM273.06 91.6495L278.32 80.4395L283.71 91.6495H273.06Z" fill="black"/>
<path d="M113.16 0.209591C89.09 -0.320409 82.83 7.10959 82.83 12.3996C82.83 23.5796 96.8 25.0496 114.87 27.5996C118.34 28.0896 118.96 29.5696 118.57 30.7296C117.99 32.4696 114.11 32.2196 109.77 32.2096C103.56 32.2096 99.39 31.2296 97.71 28.3696H83.09C83.46 35.0696 87.29 41.7996 110.11 42.3196C136.43 42.9196 140.77 34.7796 140.61 30.1896C140.27 20.4896 133.69 18.5696 109.89 15.6696C106.25 15.2696 103.84 13.9796 104.2 12.1096C104.51 10.4896 108.51 10.5496 114.51 10.5796C119.91 10.6096 123.82 11.0996 125.17 14.4696H140.11C139.63 8.62959 136.05 0.709591 113.16 0.209591Z" fill="black"/>
<path d="M36.67 41.8095H57.9V0.639526H36.67V41.8095Z" fill="black"/>
<path d="M395.4 41.8095H446.98V32.1295H416.64V0.639526H395.41V41.8095H395.4Z" fill="black"/>
<path d="M317.54 41.7795H369.12V32.1295H338.78V24.6495H356.6V17.8295H338.78V10.2595H369.12V0.639526H317.54V41.7795Z" fill="black"/>
<path d="M286.35 19.7995C289.37 17.7595 290.92 15.0995 290.92 11.8895C290.92 4.30953 283.64 0.639526 272.02 0.639526H235.92V41.8095H270.56C285.16 41.8095 292.89 38.5395 292.89 28.9795C292.89 24.9195 290.71 21.8395 286.36 19.8095L286.35 19.7995ZM257.26 10.1895H267.4C271.58 10.1895 273.44 11.4595 273.44 13.9895C273.44 16.5195 271.58 17.7895 267.32 17.7895H257.26V10.1995V10.1895ZM269.34 32.1095H257.26V24.5795L269.42 24.6195C273.6 24.6195 275.46 25.8895 275.46 28.4195C275.46 30.9495 273.6 32.1095 269.34 32.1095Z" fill="black"/>
<path d="M195.76 0.659546H177.1L157.75 41.8695H171.44L173.96 36.4995H191.1L193.68 41.8695H215.59L195.76 0.659546ZM177.17 29.6795L182.43 18.4695L187.82 29.6795H177.17Z" fill="black"/>
</g>
<defs>
<clipPath id="clip0_44_15">
<rect width="477.41" height="103.67" fill="white" transform="translate(0 0.179565)"/>
</clipPath>
</defs>
</svg>
