<svg width="578" height="65" viewBox="0 0 578 65" fill="none" xmlns="http://www.w3.org/2000/svg">
<path d="M128.49 42.1086C125.809 46.8159 122.054 49.9291 115.184 49.9291C105.593 49.9291 98.2103 42.1386 98.2103 32.5441C98.2103 22.9376 105.593 15.1637 115.184 15.1637C122.208 15.1637 126.424 18.6893 128.993 23.9184H139.172C136.471 13.3986 126.725 5.84961 114.977 5.84961C100.218 5.84961 88.9022 17.773 88.9022 32.5441C88.9022 47.3093 100.218 59.2327 114.977 59.2327C126.373 59.2327 135.772 52.4889 138.865 42.1086H128.49ZM550.696 59.2322C541.905 59.2322 532.802 55.6061 527.935 48.5415L535.796 42.873C539.501 47.8922 544.877 50.3605 550.696 50.3605C555.79 50.3605 562.267 48.8324 562.267 43.8837C562.267 38.2917 552.807 37.4114 548.589 36.3902C540.225 34.3537 530.766 32.5437 530.766 21.631C530.766 10.9344 541.031 5.85065 550.484 5.85065C559.209 5.85065 566.476 8.97734 571.792 15.958L564.158 21.7015C560.734 17.3407 556.675 14.7253 550.484 14.7253C544.963 14.7253 540.809 16.6928 540.809 20.2574C540.809 26.0009 549.021 26.0669 556.082 27.8064C563.574 29.6314 572.3 31.8899 572.3 42.5056C572.3 54.9479 560.884 59.2322 550.696 59.2322ZM512.511 24.1804C512.511 28.4647 509.021 31.9558 504.731 31.9558H489.534V16.3899H504.731C509.021 16.3899 512.511 19.881 512.511 24.1804ZM523.579 57.9995L512.737 39.3024C518.118 36.4711 521.819 30.7187 521.819 24.1804C521.819 14.7253 514.186 7.08185 504.731 7.08185H480.22V57.9995H489.534V41.2579H503.066L512.656 57.9995H523.579ZM460.139 32.5437C460.139 42.1382 452.355 49.9286 442.765 49.9286C433.158 49.9286 425.38 42.1382 425.38 32.5437C425.38 22.9387 433.158 15.1632 442.765 15.1632C452.355 15.1632 460.139 22.9387 460.139 32.5437ZM469.458 32.5437C469.458 17.774 457.519 5.85065 442.765 5.85065C427.989 5.85065 416.076 17.774 416.076 32.5437C416.076 47.3088 427.989 59.2322 442.765 59.2322C457.519 59.2322 469.458 47.3088 469.458 32.5437ZM404.212 58.0002L387.481 34.5749L380.938 41.2587V58.0002H371.624V7.08258H380.938V28.3245L401.592 7.08258H413.948L394.094 27.7412L415.708 58.0002H404.212ZM304.403 58.0002V7.08258H313.717V48.6862H335.542V58.0002H304.403ZM255.677 58.0002V7.08258H291.026V16.3906H264.981V27.8866H291.026V37.2007H264.981V48.6862H291.026V58.0002H255.677ZM230.07 37.2708H216.251L223.16 19.7404L230.07 37.2708ZM248.401 57.9998L227.963 7.08215H218.358L197.915 57.9998H207.963L212.614 46.4379H233.706L238.358 57.9998H248.401ZM181.334 58.0002V37.2007H157.693V58.0002H148.385V7.08258H157.693V27.8866H181.334V7.08258H190.642V58.0002H181.334ZM71.0445 7.08197H80.3586V57.9997H71.0445V7.08197ZM49.8023 58.0002V21.3439L37.1486 58.0002H26.9603L14.3126 21.3439V58.0002H5V7.08258H18.8234L32.0544 43.748L45.296 7.08258H59.1164V58.0002H49.8023Z" fill="black"/>
</svg>
