<svg width="521" height="94" viewBox="0 0 521 94" fill="none" xmlns="http://www.w3.org/2000/svg">
<path fill-rule="evenodd" clip-rule="evenodd" d="M489.99 54.4898C496.09 56.6898 496.59 57.4898 496.59 59.6898L496.69 78.8898C496.69 79.4518 496.627 80.3296 496.554 81.3457C496.497 82.1377 496.434 83.0137 496.39 83.8898C491.69 85.4898 486.59 86.1897 480.99 86.1897C460.99 86.1897 447.29 70.1898 447.29 47.0898C447.29 20.1897 463.29 7.18979 482.19 7.18979C487.39 7.18979 495.49 8.38979 496.79 10.0898C498.79 12.5898 501.29 19.9898 503.19 25.7898H505.09C504.89 21.8898 504.79 17.9898 504.79 14.0898C504.79 11.9187 504.876 9.66097 504.964 7.37367V7.37312V7.37258V7.37204L504.964 7.369C505.01 6.18125 505.056 4.98553 505.09 3.7898C499.29 2.5898 493.39 1.88977 485.99 1.88977C462.19 1.88977 433.49 17.4898 433.49 48.1898C433.49 73.3898 452.29 91.2898 482.89 91.2898C491.89 91.2898 502.99 89.0898 508.09 87.4898C507.89 85.0898 507.79 82.7898 507.79 81.4898V60.7898C507.79 57.8898 508.19 56.5898 510.59 55.3898L519.09 51.3898V49.4898C516.844 49.604 514.583 49.7907 512.314 49.9781C508.622 50.2829 504.906 50.5898 501.19 50.5898C497.242 50.5898 493.256 50.2854 489.279 49.9818C486.809 49.7932 484.342 49.6048 481.89 49.4898V51.3898L489.99 54.4898ZM221.59 84.2898L211.29 87.7898L211.19 87.7897V89.5897C217.69 88.9897 225.49 88.4896 232.29 88.4896C236.99 88.4896 245.99 89.0897 251.79 89.5897V87.6896L239.69 83.4897C237.49 82.8897 237.09 82.2896 237.09 63.7897V49.2897C241.289 49.5897 245.389 49.5897 249.188 49.5897H249.19C262.49 49.5897 280.09 43.8898 280.09 26.5898C280.09 8.98977 264.09 3.38977 251.59 3.38977C247.29 3.38977 242.99 3.66478 238.69 3.93978C234.39 4.21478 230.09 4.48979 225.79 4.48979C222.035 4.48979 218.279 4.10677 214.269 3.69774C213.26 3.59484 212.235 3.49028 211.19 3.38977V5.28974L222.49 9.08974C225.49 9.98972 225.89 10.9898 225.89 23.5898V72.1898C225.89 82.5898 225.09 83.0898 221.59 84.2898ZM246.289 45.1898C243.389 45.1898 241.089 45.1898 237.19 44.8898V8.88991C240.49 8.68998 243.99 8.58985 247.89 8.58985C259.09 8.58985 267.19 14.3898 267.19 27.2898C267.19 36.8898 259.99 45.1898 246.29 45.1898H246.289ZM371.59 7.58972L377.49 5.28974L377.49 3.48977C372.09 4.08977 366.89 4.58973 361.79 4.58973C356.722 4.58973 351.728 4.14708 346.744 3.70535L346.741 3.7051L346.741 3.70505C345.924 3.63261 345.107 3.5602 344.29 3.48977V5.38974L351.69 7.68978C355.29 8.88978 357.29 9.98974 357.59 12.3897C358.69 21.5897 358.79 42.9897 358.79 59.4898C358.79 75.5898 350.29 84.2898 336.19 84.2898C314.89 84.2898 310.99 72.9898 310.99 55.7898V55.7851C310.99 35.188 310.99 23.5892 311.39 15.6898C311.59 10.9898 312.69 10.3897 320.09 7.58972L326.29 5.28974V3.38977C319.19 3.98977 312.19 4.48979 305.09 4.48979C299.866 4.48979 294.643 4.07732 289.248 3.65135C288.136 3.56357 287.017 3.47521 285.89 3.38977V5.28974L295.59 9.08974C299.39 10.4898 299.79 13.1898 299.79 24.4897V62.1898C299.79 82.6898 313.29 91.1897 332.79 91.1897C352.79 91.1897 365.49 81.4897 365.79 55.4898C365.94 43.5397 365.94 34.8147 365.94 28.1397C365.94 21.4648 365.94 16.8398 366.09 13.0897C366.19 10.2898 368.09 9.08974 371.59 7.58972ZM382.19 87.7898L392.49 84.2898C395.89 83.0898 396.29 82.5898 396.39 72.1898C396.43 68.9518 396.502 65.7137 396.574 62.4757C396.682 57.6137 396.79 52.7518 396.79 47.8898C396.79 43.0306 396.682 38.1714 396.574 33.3121C396.502 30.0714 396.43 26.8306 396.39 23.5898C396.09 10.9898 395.99 9.98972 393.39 9.08974L382.09 5.28974V3.38977C382.8 3.4453 383.514 3.50206 384.23 3.5591L384.231 3.55918L384.233 3.55934C389.969 4.01583 395.924 4.48979 402.59 4.48979C409.29 4.48979 415.89 3.98977 422.59 3.38977V5.28974L411.29 9.08974C408.69 9.98972 408.59 10.9898 408.39 23.5898C408.35 26.8327 408.278 30.0757 408.206 33.3187C408.098 38.1757 407.99 43.0327 407.99 47.8898C407.99 52.7484 408.098 57.607 408.206 62.4656C408.278 65.707 408.35 68.9484 408.39 72.1898C408.49 82.4898 408.89 83.0898 412.29 84.2898L422.59 87.7898V89.6898C416.29 89.1897 408.49 88.5898 402.59 88.5898C395.89 88.5898 388.09 89.0898 382.09 89.6898L382.19 87.7898ZM84.3898 20.5898C70.8898 20.5898 58.9898 13.4898 52.2898 2.88977C62.3715 6.64571 73.4301 8.9362 84.7898 8.98882C96.1494 8.9362 107.208 6.64571 117.29 2.88977C110.59 13.4898 98.6898 20.5898 85.1898 20.5898H84.3898ZM36.9897 15.8898C51.6898 23.0898 67.3898 27.1898 84.7898 27.1898C102.19 27.1898 117.89 23.0898 132.59 15.8898C122.29 31.0898 104.49 41.3898 84.7898 41.3898C65.0898 41.3898 47.2898 30.9898 36.9897 15.8898ZM84.5898 65.0898L84.7898 65.0896L84.9898 65.0898H84.5898ZM84.7898 65.0896C112.012 65.0184 137.024 50.4387 151.19 29.5898C131.59 41.4898 109.39 48.5898 84.7898 48.5898C60.1898 48.5898 37.9898 41.5898 18.3898 29.5898C32.6548 50.5383 57.6668 65.0187 84.7898 65.0896ZM167.69 45.7898C143.89 61.6898 115.59 71.1898 84.9898 71.3898H84.4898C53.8898 71.1898 25.5898 61.6898 1.88977 45.7898C20.3898 72.1898 50.1897 89.5898 84.7898 89.5898C119.49 89.5898 149.29 72.1898 167.69 45.7898Z" fill="black"/>
</svg>
