<svg width="705" height="52" viewBox="0 0 705 52" fill="none" xmlns="http://www.w3.org/2000/svg">
<g clip-path="url(#clip0_42_193)">
<path fill-rule="evenodd" clip-rule="evenodd" d="M504.349 2.40577H511.004V37.6201C511.004 45.1081 505.962 49.5605 498.703 49.5605C493.863 49.5605 488.821 46.7272 488.821 38.0248V2.40577H494.065V0.381958H476.117V2.00101H480.755V36.2034C480.755 45.9177 486.2 50.7748 498.501 50.7748C507.374 50.7748 513.222 45.5129 513.222 37.4177V2.40577H517.86V0.381958H504.349V2.40577ZM71.9923 29.5248L79.4537 8.6796H79.6553L86.9151 29.5248H71.9923ZM84.8985 0.786743H80.0587L62.9176 48.751H58.4811V50.3701H72.194V48.751H64.9342L71.3873 30.5367H87.3184L93.5698 48.751H88.125V50.3701H104.661V48.751H101.636L84.8985 0.786743ZM12.7045 23.8582V2.4058H19.3593C27.4256 2.4058 30.2489 7.66771 30.2489 12.7272C30.2489 19.6082 26.014 24.0606 17.141 24.0606H12.7045V23.8582ZM22.3842 25.0725C33.2737 24.2629 38.9202 19.6082 38.9202 12.9296C38.9202 6.6558 34.6854 0.989136 21.7792 0.989136H0V2.60818H4.63816V48.751H0V50.3701H18.1493V48.751H12.7045V25.2748H12.9062L31.8621 50.1677H43.9617V48.5487H40.3318L22.3842 25.0725ZM136.725 48.5487H147.816C152.858 48.5487 154.269 47.7391 158.706 30.5368H160.319V50.3701H124.02V48.751H128.658V2.60818H124.02V0.989136H144.186V2.60818H136.725V48.5487ZM196.618 3.21533H204.281C212.145 3.21533 215.372 7.66771 215.372 14.5487C215.372 23.251 211.742 25.2748 203.676 25.2748H196.618V3.21533ZM203.474 48.751H196.618V26.2868H205.692C217.993 26.2868 223.842 21.2272 223.842 13.9415C223.842 6.6558 217.388 0.989136 205.692 0.989136H184.115V2.60818H188.753V48.5487H184.115V50.1677H203.474V48.751ZM271.836 50.3701V48.5487H276.475V25.4772H256.914V48.5487H261.753V50.3701H244.209V48.5487H248.646V3.01295H244.209V0.989136H261.753V3.01295H256.914V24.0606H276.475V3.01295H271.836V0.989136H289.381V3.01295H284.743V48.5487H289.381V50.3701H271.836ZM393.638 30.3344H392.025C387.387 47.5368 385.975 48.5487 381.136 48.5487H370.044V2.60818H377.506V0.989136H357.34V2.60818H361.978V48.751H357.34V50.3701H393.638V30.3344ZM432.559 8.6796L425.097 29.5248H440.02L432.76 8.6796H432.559ZM433.365 0.786743H438.205L455.144 48.751H457.968V50.3701H441.432V48.751H446.876L440.625 30.5367H424.694L418.241 48.751H425.501V50.3701H411.788V48.751H416.023L433.365 0.786743ZM551.134 2.4058V23.8582V24.0606H555.571C564.444 24.0606 568.679 19.6082 568.679 12.7272C568.679 7.66771 565.855 2.4058 557.789 2.4058H551.134ZM577.552 12.9296C577.552 19.6082 571.905 24.2629 561.016 25.0725L578.761 48.5487H582.19V50.1677H570.09L551.134 25.2748H550.933V48.751H556.781V50.3701H538.631V48.751H543.269V2.60818H538.631V0.989136H560.411C573.317 0.989136 577.552 6.6558 577.552 12.9296ZM625.95 48.5487H612.842V25.2748H618.69C622.521 25.2748 624.135 27.501 625.748 34.9891H627.361V13.7391H625.748C624.336 21.4296 622.32 23.4534 618.69 23.4534H612.842V2.4058H627.765C631.394 2.4058 632.604 3.41771 636.638 16.5725H638.251V0.989136H600.137V2.60818H604.775V48.751H600.137V50.3701H639.057V31.9534H637.243C632.806 46.5248 631.193 48.5487 625.95 48.5487ZM692.094 3.01295V0.989136H705V3.01295H699.959V50.3701H697.74L668.5 4.22723V48.5487H674.751V50.3701H661.442V48.5487H666.483V3.01295H661.442V0.989136H675.759L697.942 36.6082H698.144V3.01295H692.094Z" fill="black"/>
</g>
<defs>
<clipPath id="clip0_42_193">
<rect width="705" height="51" fill="white" transform="translate(0 0.179565)"/>
</clipPath>
</defs>
</svg>
