<svg width="731" height="41" viewBox="0 0 731 41" fill="none" xmlns="http://www.w3.org/2000/svg">
<g clip-path="url(#clip0_42_45)">
<path fill-rule="evenodd" clip-rule="evenodd" d="M621.214 41C626.729 41 631.013 40.0587 636.303 37.716V20.7935H623.002V25.9443H630.614V34.1464C627.883 35.0243 625.094 35.7276 622.021 35.7276C612.611 35.7276 605.999 29.461 605.999 20.5555C605.999 11.888 612.668 5.27241 621.261 5.27241C626.027 5.27241 630.85 6.62092 635.49 9.19102V3.40036C629.283 0.761512 626.027 0 621.377 0C609.308 0 600.133 8.96363 600.133 20.73C600.133 32.4436 609.077 41 621.214 41ZM90.632 20.5027C90.632 29.223 84.068 35.7276 75.1866 35.7276C66.3629 35.7276 59.7989 29.223 59.7989 20.5027C59.7989 11.7135 66.3629 5.27242 75.1866 5.27242C84.068 5.27242 90.632 11.7135 90.632 20.5027ZM96.4935 20.5027C96.4935 9.37083 88.2465 8.12652e-06 75.1866 8.12652e-06C62.3574 8.12652e-06 53.9374 9.42901 53.9374 20.5027C53.9374 31.3278 62.1214 41 75.066 41C88.4824 41 96.4935 31.2802 96.4935 20.5027ZM154.437 40.478H160.125V0.530329H154.84L141.665 16.924L128.542 0.530329H123.2V40.478H128.888V9.37233H129.009L141.199 24.83H142.126L154.321 9.37233H154.437V40.478ZM229.215 40.478H223.526V9.37233H223.411L211.216 24.83H210.288L198.093 9.37233H197.978V40.478H192.29V0.530329H197.632L210.755 16.924L223.93 0.530329H229.215V40.478ZM288.958 0.528315H282.106L271.363 14.2884L260.741 0.528315H253.889L268.579 19.3281V40.4759H274.268V19.3863L288.958 0.528315ZM442.887 40.478H437.204V23.0742H415.016V40.478H409.328V0.530329H415.016V17.9182H437.204V0.530329H442.887V40.478ZM466.456 40.478H472.15V0.530324H466.456V40.478ZM501.177 35.3157H519.061V40.477H495.489V0.529386H501.177V35.3157ZM541.087 5.68326H556.532V0.527188H535.403V40.4801H541.087V21.9024H556.532V16.7516H541.087V5.68326ZM582.134 40.478H576.451V0.530324H582.134V40.478ZM680.427 5.68326H663.65V17.7458H679.845V22.8966H663.65V35.3135H680.951V40.4801H657.956V0.527188H680.427V5.68326ZM709.746 17.9781H706.091V5.45016H709.746C715.261 5.45016 717.463 7.72941 717.531 11.4841C717.584 14.821 715.843 17.9781 709.746 17.9781ZM723.388 11.7115C723.388 4.80499 718.391 0.526778 710.38 0.526778H700.398V40.4797H706.091V23.1342H708.477C711.371 23.1342 713.751 24.0702 718.978 32.267L724.205 40.4797H731L730.552 39.8543C728.15 36.505 727.187 35.1624 725.595 32.5632L725.52 32.4389C722.543 27.5203 720.338 23.8757 716.771 21.4948C721.013 19.7973 723.388 16.344 723.388 11.7115ZM33.0928 5.68339H19.3933V40.4802H13.7048V5.68339H0V0.527322H33.0928V5.68339ZM377.092 0.535744H316.191V10.4776H346.641V30.4305H316.191V40.42H377.092V30.4885V30.4305V10.4776V10.4512V0.535744Z" fill="black"/>
</g>
<defs>
<clipPath id="clip0_42_45">
<rect width="731" height="41" fill="white"/>
</clipPath>
</defs>
</svg>
