<svg width="286" height="117" viewBox="0 0 286 117" fill="none" xmlns="http://www.w3.org/2000/svg">
<path fill-rule="evenodd" clip-rule="evenodd" d="M278.672 10.2052C277.913 11.9904 278.013 14.1774 278.109 16.2747C278.263 19.6279 278.406 22.7518 275.011 23.6385L103.57 23.062L85.38 23.4411L82.8056 27.3897L61.3484 109.044L58.3765 110.398L29.4166 109.889L26.6966 104.223C23.1211 89.4579 19.3475 74.8017 15.5779 60.1613L15.5777 60.1607L15.5777 60.1605C10.8479 41.7907 6.12442 23.4456 1.80688 4.9416C9.22694 3.96628 17.8712 3.40162 25.4054 4.99293C29.916 18.9616 33.0137 33.4461 36.1299 48.017L36.1299 48.0171L36.1299 48.0172C38.439 58.8145 40.7583 69.6593 43.6702 80.3768L44.5677 81.1073L46.6854 78.7065L65.151 6.07486L67.2176 4.33745L261.926 4.65335C263.758 5.22635 266.243 4.99323 268.739 4.75914C273.845 4.28023 278.994 3.79728 278.672 10.2052ZM278.939 41.5694C279.423 47.0343 274.239 52.0452 270.456 55.2357C269.165 54.6607 267.819 53.9738 266.427 53.264C260.212 50.0941 253.1 46.4664 246.011 50.2959C243.299 52.3374 241.394 56.0017 243.374 59.0225C247.85 62.3809 253.633 63.8064 259.363 65.2185C269.013 67.597 278.509 69.9376 281.344 81.4114C283.576 89.281 281.789 99.3462 275.574 104.922C265.559 114.292 251.038 116.274 237.04 112.235C235.548 111.567 234.013 110.952 232.467 110.333C227.654 108.406 222.742 106.439 218.717 102.703C220.76 97.1073 224.357 92.3215 228.219 88.1438C231 88.8347 233.654 90.0855 236.355 91.3583C241.233 93.6575 246.263 96.0283 252.471 95.2988C255.66 95.2475 259.671 93.0362 261.245 89.6167C262.011 80.4471 254.404 79.8343 246.915 79.2311C243.278 78.9381 239.669 78.6474 237.06 77.3798C228.943 75.4291 222.531 68.4834 220.933 60.6967C219.362 52.5546 221.61 44.7481 227.806 39.5121C242.315 29.5576 265.138 31.1291 278.939 41.5694ZM212.489 108.562C213.151 85.2968 213.249 61.0046 212.67 37.6128C212.382 37.5726 212.089 37.5312 211.791 37.4893C205.891 36.6579 198.214 35.5762 192.863 37.8655C193.1 42.6701 192.752 47.8092 192.412 52.8311C192.069 57.9003 191.733 62.85 192.016 67.2159L189.745 67.6542L173.393 38.1656L171.279 36.7085C163.981 36.4203 156.644 36.4558 150.141 37.826C148.886 53.0795 148.949 69.5676 149.01 85.7014V85.702V85.7026C149.036 92.3974 149.061 99.0311 148.992 105.49L150.271 109.451C152.644 109 155.228 109.149 157.796 109.297C161.53 109.512 165.232 109.725 168.205 108.092L168.811 78.0549C169.049 77.966 169.255 77.7448 169.467 77.5182C169.838 77.1209 170.225 76.7072 170.819 76.9612C175.121 83.2785 178.253 89.4076 181.392 95.5517L181.392 95.5522L181.392 95.5523C183.634 99.9383 185.879 104.332 188.556 108.807C191.058 108.812 193.609 108.982 196.165 109.152H196.165H196.166C201.741 109.522 207.337 109.894 212.489 108.562ZM112.883 75.9306C112.387 70.13 110.006 64.5269 107.585 59.5042C105.343 62.5956 104.689 66.5675 104.047 70.4696V70.4697L104.046 70.4698C103.749 72.2745 103.455 74.0642 103.007 75.745C105.687 78.2129 109.923 76.9967 112.883 75.9306ZM130.223 55.3265L143.335 108.562C139.482 109.983 134.868 109.69 130.289 109.4C128.21 109.268 126.139 109.137 124.149 109.166C123.029 107.594 122.559 105.509 122.091 103.434C121.245 99.6799 120.405 95.9582 115.741 95.358C113.891 95.4708 111.891 95.3533 109.868 95.2345C104.526 94.9208 99.0246 94.5977 95.7126 98.4814L92.5714 109.392C86.4582 110.177 79.105 110.225 73.4996 108.756C79.6443 84.6571 86.7258 60.9652 94.1026 37.2772C103.2 35.4845 114.934 36.1557 124.361 37.2653L130.223 55.3265ZM281.297 29.1705C281.573 29.1705 281.781 29.206 281.927 29.2732C282.139 29.3442 282.258 29.4982 282.254 29.7233C282.254 29.9444 282.183 30.1103 282.041 30.2248C281.903 30.3117 281.71 30.367 281.455 30.3591H281.045V29.1705H281.297ZM280.006 28.4913V32.5071L281.045 32.5111V31.0896L281.273 31.0974H281.502C281.667 31.1053 281.789 31.133 281.876 31.1567C282.01 31.212 282.112 31.3146 282.167 31.4607C282.21 31.5555 282.234 31.7134 282.238 31.9464C282.246 32.1952 282.269 32.3887 282.301 32.5032L283.293 32.5229L283.265 32.3926C283.265 32.3768 283.261 32.3571 283.257 32.3373C283.253 32.3176 283.25 32.2978 283.25 32.282C283.259 32.2526 283.257 32.2263 283.255 32.2011C283.253 32.1856 283.252 32.1707 283.253 32.1557L283.25 31.8043C283.253 31.3976 283.12 31.0895 282.883 30.8882C282.754 30.7894 282.569 30.7026 282.313 30.6473C282.588 30.6276 282.817 30.5367 283.002 30.3827C283.19 30.2445 283.277 29.9997 283.277 29.6562C283.277 29.2218 283.104 28.8941 282.746 28.7085C282.541 28.5822 282.277 28.515 281.947 28.4913C281.939 28.4913 281.924 28.4916 281.903 28.4919C281.8 28.4936 281.538 28.4979 281.128 28.4913C280.944 28.4913 280.779 28.4903 280.63 28.4893C280.374 28.4877 280.168 28.4863 280.006 28.4913ZM278.628 30.5051C278.628 29.6838 278.916 28.9849 279.494 28.4084C280.081 27.8003 280.789 27.5002 281.604 27.5002C282.427 27.5002 283.12 27.8003 283.722 28.4124C284.297 28.9849 284.592 29.6838 284.592 30.5051C284.592 31.3186 284.297 32.0333 283.73 32.6216C283.139 33.206 282.427 33.514 281.604 33.4982C280.789 33.5101 280.096 33.2218 279.51 32.6374C278.923 32.0451 278.628 31.3265 278.628 30.5051ZM281.604 34.1261C282.588 34.134 283.431 33.7825 284.143 33.1034C284.875 32.4045 285.23 31.5239 285.226 30.4894C285.226 29.4864 284.875 28.6374 284.159 27.9109C283.474 27.2041 282.604 26.8487 281.612 26.8487C280.652 26.8605 279.829 27.1804 279.12 27.8517C278.365 28.5466 277.983 29.4311 277.983 30.4894C277.998 31.5042 278.337 32.3768 279.022 33.0757C279.723 33.7707 280.581 34.1142 281.604 34.1261Z" fill="black"/>
</svg>
