<svg width="179" height="183" viewBox="0 0 179 183" fill="none" xmlns="http://www.w3.org/2000/svg">
<g clip-path="url(#clip0_44_32)">
<path d="M156.962 18.0104H21.0564V168.95H156.962V18.0104Z" fill="white"/>
<path d="M133.191 141.424L130.409 135.995L127.649 141.424H133.191Z" fill="black"/>
<path d="M108.452 97.1076H69.499L36.4757 45.4105H66.7819L89.2666 81.4983L112.279 40.6884C118.271 30.0589 126.923 30.8079 130.468 30.8079H145.914L108.451 97.1069L108.452 97.1076ZM138.307 151.64L136.026 147.084H124.77L122.454 151.64H116.049L130.381 123.27L144.751 151.64H138.311H138.307ZM110.98 141.222C110.98 143.507 110.818 145.416 109.739 147.458C108.298 150.058 105.695 151.769 102.847 152.215C102.847 152.215 101.434 152.477 99.6911 152.215C94.7678 151.469 91.8031 147.576 91.6435 142.608H97.3298C97.3999 144.358 98.0458 145.699 99.6911 146.436C99.6911 146.436 101.333 147.003 102.847 146.436C105.091 145.54 105.218 143.625 105.218 141.51V124.497H110.981V141.225L110.98 141.222ZM86.7106 130.192H72.9835V135.239H81.6389V140.936H72.9835V145.944H86.7106V151.641H67.2555V124.487H86.7106V130.187V130.192ZM47.4984 152.903L33.0904 124.493H39.5307L47.5275 140.23L55.4699 124.493H61.8751L47.4984 152.903ZM165.325 0.850004H13.6749L-0.00445557 14.755V168.943L13.6749 182.848H165.325L178.996 168.942V14.7536L165.325 0.848511V0.850004Z" fill="black"/>
</g>
<defs>
<clipPath id="clip0_44_32">
<rect width="179" height="182" fill="white" transform="translate(0 0.849609)"/>
</clipPath>
</defs>
</svg>
