<svg width="242" height="238" viewBox="0 0 242 238" fill="none" xmlns="http://www.w3.org/2000/svg">
<path d="M178.824 1.1491C199.518 1.1491 220.215 1.14608 240.909 1.15212C240.921 5.81254 240.885 10.476 240.93 15.1394C235.672 15.3688 230.296 15.9574 225.455 18.1578C220.544 20.3643 216.427 24.3787 214.308 29.3501C189.143 88.5048 163.997 147.665 138.86 206.832C138.425 207.804 138.075 208.809 137.568 209.748C128.567 209.642 119.563 209.733 110.562 209.7C106.59 201.807 102.681 193.88 98.6759 186.005C94.0849 198.308 89.4667 210.599 84.8757 222.899C114.568 222.902 144.26 222.899 173.952 222.902C179.388 222.975 184.987 222.748 190.073 220.623C198.525 217.228 205.253 210.666 210.728 203.551C217.338 194.931 222.355 185.227 226.825 175.365C231.839 175.323 236.849 175.38 241.86 175.371C232.358 195.667 222.808 215.945 213.221 236.201C144.8 236.204 76.3819 236.201 7.96071 236.201C9.62687 231.852 11.2115 227.466 12.9984 223.162C13.1071 222.718 13.6595 222.83 13.9945 222.788C22.5366 222.724 31.136 222.392 39.5181 220.614C43.8797 219.591 48.3923 218.227 51.7487 215.112C53.5235 213.418 54.0759 210.946 54.6645 208.664C62.7448 187.041 70.8371 165.42 78.9234 143.799C61.8332 107.385 44.6856 70.992 27.5864 34.581C26.21 31.3965 24.3929 28.2423 21.5345 26.1687C15.6184 21.7376 7.93053 21.1762 0.807096 20.8925C0.801059 15.6737 0.807096 10.4579 0.804077 5.23904C24.8276 5.22998 48.848 5.233 72.8715 5.23602C72.8745 10.4548 72.8775 15.6737 72.8685 20.8925C69.7384 21.0917 66.4151 21.0404 63.5809 22.5888C62.1743 23.2529 61.3472 24.9251 61.7095 26.4464C62.1532 28.9365 64.1212 30.7144 65.1172 32.9631C75.2621 54.8133 85.4069 76.6666 95.582 98.5077C100.68 84.2518 105.778 69.9989 110.897 55.752C111.649 53.772 111.915 51.484 111.057 49.4919C110.384 47.9193 108.857 46.9474 107.351 46.2924C104.423 45.085 101.205 45.0971 98.1024 44.8737C99.687 40.4699 101.281 36.066 102.923 31.6863C103.303 31.4418 103.831 31.629 104.269 31.5686C128.643 31.5837 153.019 31.5686 177.396 31.5776C175.712 36.0026 174.036 40.4276 172.37 44.8586C166.499 45.1303 160.448 45.2782 154.942 47.5722C152.419 48.6286 150.031 50.2435 148.54 52.5797C147.505 54.2911 146.862 56.2018 146.167 58.0672C135.983 85.8425 125.706 113.582 115.636 141.399C121.214 154.007 127.028 166.506 132.717 179.063C153.378 130.273 174.033 81.4779 194.718 32.6975C196.113 29.7636 198.383 27.0863 198.561 23.7117C198.733 21.0706 196.774 18.7917 194.504 17.7081C189.611 15.4503 184.112 15.3386 178.824 15.1485C178.818 10.482 178.818 5.81555 178.824 1.1491Z" fill="black"/>
</svg>
